#!OML:ASF E:\pregnant2\Project 1\Capture day 1\Session 1\pregnant2.ASF
:FULLY-SPECIFIED
:DEGREES
1688
root 4.53307 17.2742 12.4026 -327.862 -17.3382 1.17223
lowerback -16.4282 -1.14383 -4.98328
upperback -16.1873 -1.16223 2.41748
thorax -8.35154 -0.0263448 5.32672
lowerneck -9.70815 -1.8725 -3.78224
upperneck 47.4606 -2.84229 0.386257
head 20.5126 -1.95691 0.280223
rclavicle 1.74931e-014 -1.35174e-014
rhumerus -36.7059 10.6554 -78.9631
rradius 29.9227
rwrist 13.113
rhand -35.1847 -18.8196
rfingers 7.12502
rthumb -8.32306 -48.6356
lclavicle 1.74931e-014 -1.35174e-014
lhumerus -43.2457 11.2388 80.3033
lradius 29.0768
lwrist -1.69904
lhand -29.2665 33.4828
lfingers 7.12502
lthumb -2.60905 63.4466
rfemur -49.6604 16.0488 9.10907
rtibia 32.3726
rfoot -15.6329 -22.5694
rtoes 5.61038
lfemur -43.6581 -9.71611 -17.6871
ltibia 28.6011
lfoot -9.94974 17.9519
ltoes -19.7808
1689
root 4.5306 17.2745 12.3992 -327.851 -17.2829 1.14947
lowerback -16.443 -1.14677 -4.96585
upperback -16.187 -1.16644 2.42163
thorax -8.3424 -0.0300622 5.3207
lowerneck -9.71829 -1.83406 -3.73506
upperneck 47.3628 -2.77596 0.370214
head 20.4382 -1.92223 0.27747
rclavicle -1.05356e-014 -3.37934e-014
rhumerus -37.0167 10.4855 -79.0557
rradius 30.0625
rwrist 13.5648
rhand -35.469 -18.7519
rfingers 7.12502
rthumb -8.59736 -48.5569
lclavicle -1.05356e-014 -3.37934e-014
lhumerus -43.4116 11.6203 80.2194
lradius 28.9758
lwrist -1.85075
lhand -29.8642 33.7621
lfingers 7.12502
lthumb -3.18634 63.718
rfemur -49.6626 16.0456 9.14963
rtibia 32.3699
rfoot -15.6908 -22.5801
rtoes 5.85429
lfemur -43.6841 -9.72354 -17.6336
ltibia 28.614
lfoot -9.94122 17.9296
ltoes -19.83
1690
root 4.52787 17.274 12.3948 -327.861 -17.2347 1.15161
lowerback -16.4414 -1.15834 -5.0004
upperback -16.1787 -1.17718 2.42909
thorax -8.33238 -0.0316118 5.34717
lowerneck -9.76236 -1.80288 -3.70206
upperneck 47.2634 -2.72785 0.380455
head 20.3753 -1.89341 0.28686
rclavicle 2.24627e-014 1.19271e-015
rhumerus -37.2996 10.3322 -79.163
rradius 30.1484
rwrist 14.0114
rhand -35.615 -19.3667
rfingers 7.12502
rthumb -8.73827 -49.1658
lclavicle 2.24627e-014 1.19271e-015
lhumerus -43.5465 11.8751 80.2096
lradius 28.8337
lwrist -2.05329
lhand -30.3448 33.8837
lfingers 7.12502
lthumb -3.65042 63.8322
rfemur -49.6537 16.0213 9.18302
rtibia 32.3734
rfoot -15.6444 -22.5804
rtoes 5.67148
lfemur -43.6993 -9.70258 -17.6255
ltibia 28.6271
lfoot -9.94407 17.8782
ltoes -19.8733
1691
root 4.52531 17.2742 12.3901 -327.872 -17.1858 1.15316
lowerback -16.4225 -1.16656 -5.02626
upperback -16.1808 -1.18551 2.43495
thorax -8.34422 -0.0320199 5.36779
lowerneck -9.81367 -1.77362 -3.66783
upperneck 47.1794 -2.67698 0.375899
head 20.3258 -1.86539 0.288616
rclavicle -3.1408e-014 8.74653e-015
rhumerus -37.5938 10.2379 -79.3162
rradius 30.1863
rwrist 14.4986
rhand -36.0253 -19.633
rfingers 7.12502
rthumb -9.13423 -49.4152
lclavicle -3.1408e-014 8.74653e-015
lhumerus -43.7288 12.1346 80.1992
lradius 28.7557
lwrist -2.45786
lhand -30.6652 34.1222
lfingers 7.12502
lthumb -3.95981 64.0652
rfemur -49.6415 15.9837 9.23198
rtibia 32.3727
rfoot -15.5965 -22.611
rtoes 5.49639
lfemur -43.7182 -9.7466 -17.5788
ltibia 28.6415
lfoot -9.93189 17.8869
ltoes -19.8815
1692
root 4.5222 17.2732 12.3865 -327.891 -17.1633 1.16862
lowerback -16.4417 -1.17625 -5.07399
upperback -16.1712 -1.19197 2.43572
thorax -8.3224 -0.031039 5.39444
lowerneck -9.83252 -1.73496 -3.61803
upperneck 47.0744 -2.61055 0.359268
head 20.25 -1.83005 0.28499
rclavicle -1.0635e-014 -2.38542e-014
rhumerus -37.9107 10.2481 -79.5506
rradius 30.2331
rwrist 14.6704
rhand -36.4818 -19.8387
rfingers 7.12502
rthumb -9.57465 -49.6011
lclavicle -1.0635e-014 -2.38542e-014
lhumerus -43.8831 12.3101 80.2184
lradius 28.65
lwrist -2.9843
lhand -30.6786 34.4383
lfingers 7.12502
lthumb -3.9728 64.381
rfemur -49.6274 15.9592 9.25388
rtibia 32.3804
rfoot -15.6635 -22.5905
rtoes 5.75267
lfemur -43.717 -9.74519 -17.5796
ltibia 28.648
lfoot -9.94355 17.8592
ltoes -19.8734
1693
root 4.51922 17.2727 12.3816 -327.898 -17.1027 1.16123
lowerback -16.4095 -1.18722 -5.08151
upperback -16.1918 -1.20727 2.4384
thorax -8.36216 -0.0358788 5.40126
lowerneck -9.80407 -1.71318 -3.59776
upperneck 46.9637 -2.56894 0.349028
head 20.1583 -1.80969 0.285818
rclavicle 5.13858e-014 -2.38542e-014
rhumerus -38.269 10.2648 -79.8197
rradius 30.3158
rwrist 14.8004
rhand -36.6664 -20.5546
rfingers 7.12502
rthumb -9.75283 -50.3088
lclavicle 5.13858e-014 -2.38542e-014
lhumerus -44.0736 12.3133 80.3305
lradius 28.5197
lwrist -3.53853
lhand -31.0011 34.3455
lfingers 7.12502
lthumb -4.28417 64.2822
rfemur -49.6191 15.9171 9.31128
rtibia 32.3882
rfoot -15.6281 -22.5745
rtoes 5.64132
lfemur -43.733 -9.74738 -17.5454
ltibia 28.656
lfoot -9.92169 17.8271
ltoes -19.9466
1694
root 4.51612 17.2732 12.3777 -327.91 -17.0644 1.16438
lowerback -16.4199 -1.19646 -5.115
upperback -16.1939 -1.21509 2.44293
thorax -8.35867 -0.0359252 5.42433
lowerneck -9.8022 -1.69469 -3.56827
upperneck 46.8647 -2.52711 0.32251
head 20.083 -1.78943 0.276292
rclavicle -8.24956e-015 6.75868e-015
rhumerus -38.5834 10.1403 -79.9868
rradius 30.3659
rwrist 15.2646
rhand -36.8198 -20.9972
rfingers 7.12502
rthumb -9.90081 -50.7443
lclavicle -8.24956e-015 6.75868e-015
lhumerus -44.2551 12.329 80.4578
lradius 28.5283
lwrist -4.00665
lhand -30.8755 34.3895
lfingers 7.12502
lthumb -4.16296 64.3285
rfemur -49.6104 15.8992 9.34639
rtibia 32.3938
rfoot -15.639 -22.6036
rtoes 5.62774
lfemur -43.7345 -9.75269 -17.526
ltibia 28.6587
lfoot -9.92513 17.8103
ltoes -20.009
1695
root 4.51266 17.2727 12.3735 -327.919 -17.011 1.15255
lowerback -16.4133 -1.20748 -5.13081
upperback -16.1963 -1.22762 2.45118
thorax -8.36346 -0.0396215 5.44129
lowerneck -9.85852 -1.66939 -3.52471
upperneck 46.7673 -2.48123 0.308306
head 20.0265 -1.76293 0.270457
rclavicle -4.88016e-014 5.56597e-015
rhumerus -38.8872 9.97373 -80.1571
rradius 30.4282
rwrist 15.6244
rhand -36.624 -21.1634
rfingers 7.12502
rthumb -9.71188 -50.9195
lclavicle -4.88016e-014 5.56597e-015
lhumerus -44.4292 12.3529 80.561
lradius 28.5391
lwrist -4.59876
lhand -30.4575 34.2809
lfingers 7.12502
lthumb -3.75929 64.2275
rfemur -49.5928 15.874 9.40333
rtibia 32.3985
rfoot -15.7137 -22.5806
rtoes 5.85995
lfemur -43.7443 -9.75767 -17.4823
ltibia 28.6661
lfoot -9.93102 17.78
ltoes -19.9977
1696
root 4.50925 17.2729 12.3699 -327.942 -16.9706 1.16752
lowerback -16.3968 -1.21915 -5.15808
upperback -16.2098 -1.24148 2.44466
thorax -8.38695 -0.0430536 5.4489
lowerneck -9.86994 -1.66271 -3.50619
upperneck 46.6811 -2.46221 0.294016
head 19.9665 -1.75246 0.264394
rclavicle -4.69132e-014 5.1684e-015
rhumerus -39.1985 9.7146 -80.2856
rradius 30.4709
rwrist 16.0544
rhand -36.2028 -21.0791
rfingers 7.12502
rthumb -9.30552 -50.8537
lclavicle -4.69132e-014 5.1684e-015
lhumerus -44.62 12.2713 80.6942
lradius 28.4831
lwrist -5.29633
lhand -30.0586 33.2773
lfingers 7.12502
lthumb -3.37405 63.2304
rfemur -49.5637 15.8297 9.43984
rtibia 32.3989
rfoot -15.6857 -22.5647
rtoes 5.80656
lfemur -43.7345 -9.79259 -17.4631
ltibia 28.6622
lfoot -9.91607 17.7844
ltoes -20.0043
1697
root 4.50581 17.2723 12.3646 -327.952 -16.9217 1.17133
lowerback -16.381 -1.23229 -5.2047
upperback -16.2229 -1.25423 2.45973
thorax -8.40996 -0.0423282 5.4913
lowerneck -9.90031 -1.65598 -3.49916
upperneck 46.5884 -2.43431 0.272866
head 19.9078 -1.74085 0.258606
rclavicle -3.76697e-014 -1.43125e-014
rhumerus -39.5076 9.43923 -80.3484
rradius 30.5469
rwrist 16.5379
rhand -35.5419 -20.4412
rfingers 7.12502
rthumb -8.66775 -50.2433
lclavicle -3.76697e-014 -1.43125e-014
lhumerus -44.8051 12.2147 80.8464
lradius 28.5159
lwrist -5.85559
lhand -29.3895 32.9342
lfingers 7.12502
lthumb -2.72783 62.8965
rfemur -49.5614 15.8108 9.47288
rtibia 32.4044
rfoot -15.6812 -22.5797
rtoes 5.78192
lfemur -43.7535 -9.80269 -17.4323
ltibia 28.669
lfoot -9.91318 17.7551
ltoes -19.9577
1698
root 4.50216 17.2729 12.3618 -327.959 -16.8816 1.17858
lowerback -16.4209 -1.24356 -5.22676
upperback -16.2153 -1.26452 2.4569
thorax -8.37861 -0.0465309 5.49876
lowerneck -9.93475 -1.65988 -3.4952
upperneck 46.4849 -2.42563 0.25786
head 19.8438 -1.73669 0.252856
rclavicle -3.27995e-014 -1.19271e-015
rhumerus -39.7325 8.98385 -80.3368
rradius 30.6138
rwrist 17.1839
rhand -33.5419 -21.37
rfingers 7.12502
rthumb -6.73737 -51.2428
lclavicle -3.27995e-014 -1.19271e-015
lhumerus -44.9561 12.1112 80.9964
lradius 28.4198
lwrist -6.60977
lhand -28.678 31.6952
lfingers 7.12502
lthumb -2.04073 61.6651
rfemur -49.5471 15.7746 9.50688
rtibia 32.4061
rfoot -15.7712 -22.5556
rtoes 6.01661
lfemur -43.7547 -9.82828 -17.4057
ltibia 28.6661
lfoot -9.90827 17.7532
ltoes -19.9503
1699
root 4.49802 17.2719 12.3572 -327.966 -16.8413 1.17514
lowerback -16.4277 -1.25217 -5.2687
upperback -16.2215 -1.27086 2.46222
thorax -8.38224 -0.0445154 5.52782
lowerneck -10.0069 -1.64582 -3.43789
upperneck 46.4318 -2.38585 0.203954
head 19.8236 -1.71587 0.222728
rclavicle -7.85199e-015 -2.78299e-014
rhumerus -39.9774 8.5775 -80.334
rradius 30.6608
rwrist 17.4832
rhand -31.6753 -21.3714
rfingers 7.12502
rthumb -4.93521 -51.2939
lclavicle -7.85199e-015 -2.78299e-014
lhumerus -45.0716 11.9776 81.1544
lradius 28.4011
lwrist -7.15573
lhand -26.995 31.0837
lfingers 7.12502
lthumb -0.41524 61.0631
rfemur -49.5401 15.7308 9.56492
rtibia 32.4133
rfoot -15.7551 -22.5115
rtoes 6.07929
lfemur -43.7686 -9.83621 -17.3681
ltibia 28.6689
lfoot -9.88214 17.7405
ltoes -20.0215
1700
root 4.49414 17.2721 12.3531 -327.987 -16.7788 1.18714
lowerback -16.4139 -1.26841 -5.30023
upperback -16.2317 -1.28949 2.46555
thorax -8.39966 -0.0493909 5.54805
lowerneck -10.0031 -1.63519 -3.47257
upperneck 46.2916 -2.37114 0.253772
head 19.7253 -1.70733 0.258709
rclavicle -3.3197e-014 3.73715e-014
rhumerus -40.2181 8.18184 -80.343
rradius 30.6817
rwrist 17.3945
rhand -30.0499 -20.4967
rfingers 7.12502
rthumb -3.36563 -50.4499
lclavicle -3.3197e-014 3.73715e-014
lhumerus -45.2029 11.8711 81.2694
lradius 28.4803
lwrist -7.97492
lhand -25.2984 30.7008
lfingers 7.12502
lthumb 1.22342 60.677
rfemur -49.5177 15.7 9.60451
rtibia 32.4184
rfoot -15.7515 -22.544
rtoes 5.96562
lfemur -43.7618 -9.87577 -17.3353
ltibia 28.6613
lfoot -9.87696 17.7347
ltoes -19.9697
1701
root 4.49025 17.2714 12.3485 -328.006 -16.734 1.1996
lowerback -16.4228 -1.28202 -5.35118
upperback -16.2386 -1.3013 2.47455
thorax -8.40228 -0.0489954 5.58574
lowerneck -9.98642 -1.63802 -3.5146
upperneck 46.1681 -2.36319 0.271703
head 19.6354 -1.70727 0.278585
rclavicle -1.12015e-013 -9.93923e-015
rhumerus -40.397 7.77046 -80.3278
rradius 30.6284
rwrist 16.9909
rhand -28.2173 -19.431
rfingers 7.12502
rthumb -1.5958 -49.4047
lclavicle -1.12015e-013 -9.93923e-015
lhumerus -45.3085 11.6674 81.4818
lradius 28.3618
lwrist -8.71707
lhand -24.2489 29.8164
lfingers 7.12502
lthumb 2.23702 59.7845
rfemur -49.4982 15.6552 9.64692
rtibia 32.4266
rfoot -15.7405 -22.5236
rtoes 5.94538
lfemur -43.7609 -9.89739 -17.3133
ltibia 28.6544
lfoot -9.85306 17.7206
ltoes -20.0649
